<svg version="1.1" id="Uploaded to svgrepo.com" xmlns="http://www.w3.org/2000/svg" xmlns:xlink="http://www.w3.org/1999/xlink" viewBox="0 0 32 32" xml:space="preserve" fill="#ffffff"><g id="SVGRepo_bgCarrier" stroke-width="0"></g><g id="SVGRepo_tracerCarrier" stroke-linecap="round" stroke-linejoin="round"></g><g id="SVGRepo_iconCarrier"> <style type="text/css"> .duotone_twee{fill:#c9c9c9;} .duotone_een{fill:#ffffff;} .st0{fill:none;} </style> <g> <path class="duotone_een" d="M27.5,10h-23C4.224,10,4,10.224,4,10.5v11C4,21.776,4.224,22,4.5,22h23c0.276,0,0.5-0.224,0.5-0.5v-11 C28,10.224,27.776,10,27.5,10z M15,12.5c0-0.276,0.224-0.5,0.5-0.5h1c0.276,0,0.5,0.224,0.5,0.5v1c0,0.276-0.224,0.5-0.5,0.5h-1 c-0.276,0-0.5-0.224-0.5-0.5V12.5z M15,15.5c0-0.276,0.224-0.5,0.5-0.5h1c0.276,0,0.5,0.224,0.5,0.5v1c0,0.276-0.224,0.5-0.5,0.5 h-1c-0.276,0-0.5-0.224-0.5-0.5V15.5z M12,12.5c0-0.276,0.224-0.5,0.5-0.5h1c0.276,0,0.5,0.224,0.5,0.5v1 c0,0.276-0.224,0.5-0.5,0.5h-1c-0.276,0-0.5-0.224-0.5-0.5V12.5z M12,15.5c0-0.276,0.224-0.5,0.5-0.5h1c0.276,0,0.5,0.224,0.5,0.5 v1c0,0.276-0.224,0.5-0.5,0.5h-1c-0.276,0-0.5-0.224-0.5-0.5V15.5z M8,19.5C8,19.776,7.776,20,7.5,20h-1C6.224,20,6,19.776,6,19.5 v-1C6,18.224,6.224,18,6.5,18h1C7.776,18,8,18.224,8,18.5V19.5z M8,16.5C8,16.776,7.776,17,7.5,17h-1C6.224,17,6,16.776,6,16.5v-1 C6,15.224,6.224,15,6.5,15h1C7.776,15,8,15.224,8,15.5V16.5z M8,13.5C8,13.776,7.776,14,7.5,14h-1C6.224,14,6,13.776,6,13.5v-1 C6,12.224,6.224,12,6.5,12h1C7.776,12,8,12.224,8,12.5V13.5z M11,19.5c0,0.276-0.224,0.5-0.5,0.5h-1C9.224,20,9,19.776,9,19.5v-1 C9,18.224,9.224,18,9.5,18h1c0.276,0,0.5,0.224,0.5,0.5V19.5z M11,16.5c0,0.276-0.224,0.5-0.5,0.5h-1C9.224,17,9,16.776,9,16.5v-1 C9,15.224,9.224,15,9.5,15h1c0.276,0,0.5,0.224,0.5,0.5V16.5z M11,13.5c0,0.276-0.224,0.5-0.5,0.5h-1C9.224,14,9,13.776,9,13.5v-1 C9,12.224,9.224,12,9.5,12h1c0.276,0,0.5,0.224,0.5,0.5V13.5z M20,19.5c0,0.276-0.224,0.5-0.5,0.5h-7c-0.276,0-0.5-0.224-0.5-0.5 v-1c0-0.276,0.224-0.5,0.5-0.5h7c0.276,0,0.5,0.224,0.5,0.5V19.5z M20,16.5c0,0.276-0.224,0.5-0.5,0.5h-1 c-0.276,0-0.5-0.224-0.5-0.5v-1c0-0.276,0.224-0.5,0.5-0.5h1c0.276,0,0.5,0.224,0.5,0.5V16.5z M20,13.5c0,0.276-0.224,0.5-0.5,0.5 h-1c-0.276,0-0.5-0.224-0.5-0.5v-1c0-0.276,0.224-0.5,0.5-0.5h1c0.276,0,0.5,0.224,0.5,0.5V13.5z M23,19.5 c0,0.276-0.224,0.5-0.5,0.5h-1c-0.276,0-0.5-0.224-0.5-0.5v-1c0-0.276,0.224-0.5,0.5-0.5h1c0.276,0,0.5,0.224,0.5,0.5V19.5z M23,16.5c0,0.276-0.224,0.5-0.5,0.5h-1c-0.276,0-0.5-0.224-0.5-0.5v-1c0-0.276,0.224-0.5,0.5-0.5h1c0.276,0,0.5,0.224,0.5,0.5 V16.5z M23,13.5c0,0.276-0.224,0.5-0.5,0.5h-1c-0.276,0-0.5-0.224-0.5-0.5v-1c0-0.276,0.224-0.5,0.5-0.5h1 c0.276,0,0.5,0.224,0.5,0.5V13.5z M26,19.5c0,0.276-0.224,0.5-0.5,0.5h-1c-0.276,0-0.5-0.224-0.5-0.5v-1c0-0.276,0.224-0.5,0.5-0.5 h1c0.276,0,0.5,0.224,0.5,0.5V19.5z M26,16.5c0,0.276-0.224,0.5-0.5,0.5h-1c-0.276,0-0.5-0.224-0.5-0.5v-1 c0-0.276,0.224-0.5,0.5-0.5h1c0.276,0,0.5,0.224,0.5,0.5V16.5z M26,13.5c0,0.276-0.224,0.5-0.5,0.5h-1c-0.276,0-0.5-0.224-0.5-0.5 v-1c0-0.276,0.224-0.5,0.5-0.5h1c0.276,0,0.5,0.224,0.5,0.5V13.5z"></path> <path class="duotone_twee" d="M25.5,14h-1c-0.276,0-0.5-0.224-0.5-0.5v-1c0-0.276,0.224-0.5,0.5-0.5h1c0.276,0,0.5,0.224,0.5,0.5v1 C26,13.776,25.776,14,25.5,14z"></path> </g> </g></svg>